<?xml version="1.0" standalone="no"?>
<!DOCTYPE svg PUBLIC "-//W3C//DTD SVG 20010904//EN"
 "http://www.w3.org/TR/2001/REC-SVG-20010904/DTD/svg10.dtd">
<svg version="1.0" xmlns="http://www.w3.org/2000/svg"
 width="2681.000000pt" height="658.000000pt" viewBox="0 0 2681.000000 658.000000"
 preserveAspectRatio="xMidYMid meet">

<g transform="translate(0.000000,658.000000) scale(0.100000,-0.100000)"
fill="#000000" stroke="none">
<path d="M3035 6559 c-737 -56 -1447 -368 -1985 -873 -472 -444 -804 -1014
-950 -1631 -66 -279 -84 -449 -84 -770 0 -290 12 -414 61 -655 39 -195 151
-555 186 -604 11 -14 95 98 572 761 798 1109 1168 1617 1240 1703 204 245 450
415 737 512 81 26 111 31 231 36 159 5 252 -7 375 -48 210 -72 375 -216 476
-415 52 -102 69 -160 122 -397 25 -117 50 -217 54 -221 10 -11 1363 1801 1357
1817 -7 17 -198 164 -317 243 -133 89 -214 135 -367 212 -521 260 -1114 375
-1708 330z"/>
<path d="M10768 4810 l-3 -1241 -1063 1110 c-585 610 -1080 1120 -1100 1134
-70 45 -131 62 -227 62 -80 0 -97 -4 -157 -32 -88 -41 -160 -113 -201 -201
l-32 -67 -3 -1662 -2 -1663 400 0 400 0 2 1126 3 1126 1064 -1112 c631 -658
1081 -1121 1105 -1135 204 -118 464 -40 571 171 l30 59 3 1783 2 1782 -395 0
-395 0 -2 -1240z"/>
<path d="M20790 6004 c-133 -29 -262 -117 -343 -236 -20 -29 -392 -816 -826
-1748 l-790 -1695 442 -3 c242 -1 444 1 448 5 4 5 267 564 584 1245 511 1095
580 1238 604 1248 30 12 74 5 90 -13 5 -7 184 -387 399 -844 l390 -833 -577 0
-576 0 -190 -402 -191 -403 1395 -3 c767 -1 1396 0 1398 2 9 9 -1571 3385
-1616 3451 -79 117 -203 202 -339 231 -84 17 -217 17 -302 -2z"/>
<path d="M12831 5945 c-581 -105 -842 -716 -818 -1915 7 -315 23 -491 67 -713
110 -545 322 -846 685 -968 l70 -24 960 -3 c850 -2 969 -1 1040 13 431 87 687
483 787 1215 20 150 23 205 23 595 0 350 -4 458 -18 580 -88 743 -333 1123
-781 1216 -85 18 -149 19 -1016 18 -729 -1 -941 -4 -999 -14z m1805 -814 c135
-82 188 -360 188 -981 0 -615 -57 -921 -187 -1000 -31 -19 -55 -20 -811 -20
l-780 0 -46 48 c-114 119 -162 408 -161 987 0 629 47 882 177 962 l39 23 775
0 c745 0 776 -1 806 -19z"/>
<path d="M15600 5954 c0 -9 1527 -3289 1571 -3374 74 -143 180 -234 334 -286
107 -36 294 -45 409 -20 157 35 297 128 379 254 37 56 1607 3402 1607 3425 0
4 -209 7 -463 7 l-464 0 -582 -1242 c-321 -684 -590 -1249 -599 -1255 -20 -17
-63 -17 -85 -1 -9 7 -278 571 -597 1253 l-580 1240 -465 3 c-256 1 -465 -1
-465 -4z"/>
<path d="M23786 5823 c-282 -60 -515 -282 -598 -570 l-23 -78 0 -1155 0 -1155
23 -78 c84 -291 321 -514 608 -572 70 -14 206 -15 1219 -13 1279 4 1179 -2
1342 79 156 78 287 212 367 374 84 171 81 129 81 1000 l0 770 -810 0 -810 0
-3 -402 -2 -403 407 -2 408 -3 0 -281 c0 -263 -1 -283 -19 -303 l-19 -21 -969
0 -969 0 -24 25 -25 24 0 959 c0 955 0 959 21 986 l20 26 1397 2 1397 3 3 403
2 402 -1477 -1 c-1268 -1 -1488 -3 -1547 -16z"/>
<path d="M5265 4738 c-281 -376 -716 -959 -968 -1297 -252 -337 -460 -611
-463 -608 -2 2 -27 87 -55 188 -43 159 -193 647 -346 1128 -54 169 -115 272
-196 327 -119 82 -312 84 -462 6 -153 -80 -165 -96 -1245 -1591 -542 -750
-986 -1370 -988 -1378 -7 -27 253 -373 268 -356 4 4 454 611 1000 1348 546
737 1000 1348 1009 1358 17 17 21 4 96 -267 57 -207 76 -291 69 -304 -5 -11
-418 -571 -919 -1246 -500 -675 -911 -1231 -913 -1236 -5 -13 186 -162 328
-256 575 -380 1218 -562 1910 -541 493 15 907 118 1345 332 589 289 1056 724
1394 1298 489 833 576 1888 230 2806 -43 114 -45 119 -58 105 -5 -5 -231 -315
-502 -689 -1258 -1736 -1256 -1734 -1466 -1941 -212 -211 -466 -327 -743 -341
-266 -13 -504 55 -628 179 -75 74 -95 112 -158 302 l-55 167 213 268 c120 151
216 264 219 257 4 -6 31 -99 60 -206 62 -225 80 -256 174 -307 77 -41 165 -56
296 -52 101 4 111 6 191 47 57 28 107 62 151 104 48 46 322 416 1026 1385 528
728 962 1327 965 1332 9 14 -244 361 -263 361 -4 0 -236 -307 -516 -682z"/>
</g>
</svg>
